<svg width="33" height="32" viewBox="0 0 33 32" fill="none" xmlns="http://www.w3.org/2000/svg">
<rect x="0.734375" width="31.4894" height="32" fill="black"/>
<path d="M17.5364 11.2369H9.60938L14.1632 23.268H22.0903L32.0975 3.47852H28.4431L20.235 18.7704L17.5364 11.2369Z" fill="#C21624"/>
<path d="M16.334 7.74187V2.28223H21.4546C22.4003 2.28223 22.5939 5.01493 21.6878 5.01493C22.6335 5.01493 22.3607 7.74187 21.4546 7.74187H16.334Z" fill="#FDFDFD"/>
<path d="M20.6006 5.48242C21.3398 5.48242 21.3398 6.79833 20.6006 6.79833H17.502V5.48242H20.6006Z" fill="black" stroke="black" stroke-width="0.024808"/>
<path d="M20.6006 3.22559C21.3398 3.22559 21.3398 4.54149 20.6006 4.54149H17.502V3.22559H20.6006Z" fill="black" stroke="black" stroke-width="0.024808"/>
<path d="M2.97266 7.78132V2.27832H4.48079V6.70554H8.18999V7.78132H2.97266Z" fill="#FEFEFE"/>
<path d="M11.6014 2.28223L8.58008 7.78115H9.89889L10.5463 6.68646H13.9272L14.4547 7.78115H15.9414L13.04 2.28223H11.6014Z" fill="white"/>
<path d="M13.3622 5.44277H11.1562L12.2592 3.47656L13.3622 5.44277Z" fill="black"/>
<path d="M1.8457 29.8923V24.4326H6.9663C7.91206 24.4326 8.10557 27.1653 7.19951 27.1653C8.14527 27.1653 7.87238 29.8923 6.96631 29.8923H1.8457Z" fill="#FDFDFD"/>
<path d="M6.07132 27.6318C6.81049 27.6318 6.81049 28.9477 6.07132 28.9477H2.97266V27.6318H6.07132Z" fill="black" stroke="black" stroke-width="0.024808"/>
<path d="M6.07132 25.376C6.81049 25.376 6.81049 26.6919 6.07132 26.6919H2.97266V25.376H6.07132Z" fill="black" stroke="black" stroke-width="0.024808"/>
<rect x="16.6895" y="24.7383" width="5.33615" height="5.15379" rx="0.967511" fill="white"/>
<rect x="17.5879" y="25.6768" width="3.66022" height="3.2708" rx="0.12404" fill="black"/>
<rect x="8.25195" y="28.291" width="1.36227" height="1.34046" fill="white"/>
<path d="M11.9051 25.7269V26.4778C11.9051 26.4778 11.9051 26.7015 11.7114 26.72C11.5176 26.7384 10.791 26.7309 10.791 26.3567V25.3879C10.8142 24.9985 10.9479 24.9167 11.3238 24.9277H15.1748C15.5665 24.934 15.635 25.0316 15.635 25.3879V26.4778C15.6256 26.7126 15.5607 26.8048 15.3685 26.9137L12.7286 28.8029H14.8357V28.1247H15.3685C15.3685 28.1247 15.5254 28.1152 15.6288 28.2377C15.7321 28.3602 15.7378 29.4612 15.65 29.6045C15.5621 29.7477 15.3685 29.7474 15.3685 29.7474H10.6699V28.8029L14.5451 26.3567V25.7269H11.9051Z" fill="white"/>
<path d="M24.2224 24.8789C23.6921 24.8789 23.1164 25.1044 22.8145 25.04V25.9097H23.5694V29.743H24.596V24.8789L24.2224 24.8789Z" fill="white"/>
</svg>
